<?xml version="1.0" encoding="UTF-8" standalone="no"?>
<svg
   width="490.28613"
   height="218.21082"
   viewBox="0 0 490.28613 218.21082"
   data-svgdocument=""
   id="_kwqfX3V0RxEpPlilS1Whw"
   x="0"
   y="0"
   data-bbox="32.30376211138976 171.11228634257816 447.39247577722057 169.77542731484374"
   version="1.1"
   sodipodi:docname="otao-logo.svg"
   inkscape:export-filename="otao-logo-PNG.png"
   inkscape:export-xdpi="96"
   inkscape:export-ydpi="96"
   inkscape:version="1.2.2 (732a01da63, 2022-12-09)"
   xmlns:inkscape="http://www.inkscape.org/namespaces/inkscape"
   xmlns:sodipodi="http://sodipodi.sourceforge.net/DTD/sodipodi-0.dtd"
   xmlns="http://www.w3.org/2000/svg"
   xmlns:svg="http://www.w3.org/2000/svg">
  <defs
     id="defs39" />
  <sodipodi:namedview
     id="namedview37"
     pagecolor="#ffffff"
     bordercolor="#000000"
     borderopacity="0.25"
     inkscape:showpageshadow="2"
     inkscape:pageopacity="0.0"
     inkscape:pagecheckerboard="0"
     inkscape:deskcolor="#d1d1d1"
     showgrid="false"
     inkscape:zoom="1.1241893"
     inkscape:cx="162.33921"
     inkscape:cy="43.586965"
     inkscape:window-width="1920"
     inkscape:window-height="1017"
     inkscape:window-x="1358"
     inkscape:window-y="-8"
     inkscape:window-maximized="1"
     inkscape:current-layer="_kwqfX3V0RxEpPlilS1Whw" />
  <path
     id="_tamAdce4XrzS1oxV2mbQ9"
     d="m 108.62434,43.45846 c 2.6069,0 4.72264,-2.12224 4.72264,-4.73714 V 4.73713 C 113.34698,2.12223 111.23124,0 108.62434,0 106.01745,0 103.9017,2.12223 103.9017,4.73713 v 33.98419 c 0,2.6149 2.11575,4.73714 4.72264,4.73714 z"
     stroke="none"
     fill="rgba(194,146,25,1)"
     stroke-width="2.36495"
     style="fill:#f39c12;fill-opacity:1" />
  <path
     id="_op_w3Ej77hmiAX9LGTkdT"
     d="m 56.039711,62.90933 c 0.923277,0.92612 2.129914,1.38798 3.338912,1.38798 1.208998,0 2.415635,-0.46186 3.338912,-1.38798 1.844194,-1.84984 1.844194,-4.84844 0,-6.69829 L 38.759544,32.17955 c -1.844195,-1.84984 -4.833631,-1.84984 -6.677824,0 -1.844194,1.84986 -1.844194,4.84846 0,6.69831 z"
     stroke="none"
     fill="rgba(194,146,25,1)"
     stroke-width="2.36495"
     style="fill:#f39c12;fill-opacity:1" />
  <path
     id="_zEMkFvMpszow2vQHyLziU"
     d="m 43.325569,108.95647 c 0,-2.6149 -2.115746,-4.73713 -4.722647,-4.73713 H 4.722648 C 2.115746,104.21934 0,106.34157 0,108.95647 c 0,2.6149 2.115746,4.73714 4.722648,4.73714 h 33.880274 c 2.606901,0 4.722647,-2.11987 4.722647,-4.73714 z"
     stroke="none"
     fill="rgba(194,146,25,1)"
     stroke-width="2.36495"
     style="fill:#f39c12;fill-opacity:1" />
  <path
     id="_poofCbrWyc9H-9lwl6JGH"
     d="M 56.039715,157.71679 32.081724,181.7459 c -1.844195,1.84985 -1.844195,4.84845 0,6.69831 0.923277,0.9261 2.129914,1.38797 3.338912,1.38797 1.208996,0 2.415633,-0.46187 3.338911,-1.38797 L 62.717539,164.4151 c 1.844194,-1.84985 1.844194,-4.84846 0,-6.69831 -1.844195,-1.84984 -4.83363,-1.84984 -6.677824,0 z"
     stroke="none"
     fill="rgba(194,146,25,1)"
     stroke-width="2.36495"
     style="fill:#f39c12;fill-opacity:1" />
  <path
     id="_Z1o6KWg3CnRntkvYaSSUt"
     d="m 163.91236,157.71679 c -1.84419,-1.84984 -4.83364,-1.84984 -6.67783,0 -1.84419,1.84986 -1.84419,4.84846 0,6.69831 l 23.95799,24.03147 c 0.92328,0.92612 2.12992,1.38798 3.33891,1.38798 1.209,0 2.41564,-0.46186 3.33892,-1.38798 1.84419,-1.84984 1.84419,-4.84844 0,-6.69829 z"
     stroke="none"
     fill="rgba(194,146,25,1)"
     stroke-width="2.36495"
     style="fill:#f39c12;fill-opacity:1" />
  <path
     id="_7HGTzUtNndc52IHGcGXG-"
     d="m 160.57344,64.2988 c 1.209,0 2.41564,-0.46187 3.33892,-1.38798 l 23.95563,-24.03148 c 1.84419,-1.84985 1.84419,-4.84846 0,-6.70067 -1.84419,-1.84748 -4.83363,-1.84985 -6.67782,0 l -23.95564,24.03384 c -1.84419,1.84985 -1.84419,4.84846 0,6.70067 0.92328,0.92137 2.12992,1.38562 3.33891,1.38562 z"
     stroke="none"
     fill="rgba(194,146,25,1)"
     stroke-width="2.36495"
     style="fill:#f39c12;fill-opacity:1" />
  <path
     id="_Nxl0LqWwq9h_543uaTaq7"
     d="m 137.89532,65.0901 c -7.97891,-4.6187 -17.05348,-7.05833 -26.3382,-7.05833 -9.19027,0 -18.264839,2.44199 -26.243755,7.06069 C 60.20541,79.63547 51.57241,111.95692 66.068577,137.13951 l 17.917728,31.13244 v 22.23374 c 0,15.27724 12.389856,27.70512 27.620395,27.70512 10.68971,0 19.96027,-6.13459 24.54832,-15.06882 0.10155,-0.1729 0.18183,-0.35529 0.25975,-0.54241 1.78044,-3.65943 2.80762,-7.75468 2.80762,-12.09389 v -22.23374 l 17.91772,-31.13244 c 14.49853,-25.18733 5.86316,-57.50642 -19.24479,-72.04941 z m -8.11588,106.64706 v 7.3165 l -36.350209,-5.18241 v -2.13409 z m -36.350209,18.71405 v -7.01095 l 36.350209,5.18241 v 1.88064 c 0,1.74564 -0.25974,3.42733 -0.72019,5.02847 z m 2.95874,9.99062 27.063119,3.85602 c -3.18541,2.757 -7.32009,4.43395 -11.84675,4.43395 -6.36613,0.003 -11.969539,-3.30414 -15.216369,-8.28997 z m 52.572509,-68.03945 -17.18335,29.86053 h -6.31181 v -9.43637 l 9.10289,-25.40051 c 0.88314,-2.46332 -0.39197,-5.17531 -2.84539,-6.06116 -2.45341,-0.88822 -5.15949,0.39317 -6.04263,2.85412 l -9.3839,26.17739 c -0.18418,0.51398 -0.27864,1.05639 -0.27864,1.60353 v 10.263 h -8.82898 v -10.263 c 0,-0.54478 -0.0944,-1.08718 -0.27864,-1.60353 l -9.383899,-26.17739 c -0.88077,-2.46331 -3.58685,-3.74234 -6.04263,-2.85412 -2.453406,0.88585 -3.728526,3.59784 -2.845396,6.06116 l 9.102906,25.40051 v 9.43637 h -6.31182 L 74.248203,132.40238 c -11.891627,-20.661 -4.810016,-47.17473 15.787808,-59.1052 6.54323,-3.78971 13.988479,-5.79114 21.617909,-5.79114 7.53263,0 14.97552,2.0038 21.51875,5.79114 20.59783,11.92809 27.67943,38.44183 15.78781,59.1052 z"
     stroke="rgba(41,101,117,1)"
     fill="rgba(41,101,117,1)"
     stroke-width="2.36495"
     style="fill:#166575;fill-opacity:1;stroke:none" />
  <path
     id="_3OatPuvZdc2yhTrjFmUkP"
     d="m 127.8378,77.09637 c -5.483,-3.17388 -11.71925,-4.8532 -18.03343,-4.8532 -2.60691,0 -4.72265,2.12223 -4.72265,4.73714 0,2.61489 2.11574,4.73713 4.72265,4.73713 4.65889,0 9.26111,1.23876 13.31078,3.58365 8.14656,4.72055 13.26119,13.53871 13.34856,23.01298 0.0236,2.60069 2.13227,4.69213 4.72265,4.69213 0.0141,0 0.0307,0 0.0448,0 2.60691,-0.0236 4.7014,-2.16487 4.67779,-4.78213 -0.118,-12.81158 -7.04147,-24.73968 -18.07121,-31.1277 z"
     stroke="none"
     fill="rgba(194,146,25,1)"
     stroke-width="2.36495"
     style="fill:#f39c12;fill-opacity:1" />
  <path
     id="_tImCtGDjpgG8wueh9K6qU"
     fill="#c29219"
     text-anchor="middle"
     font-size="100px"
     offset="0.5"
     dx="0"
     dy="0"
     href=""
     font-family="Ubuntu"
     x="0"
     y="0"
     data-fl-textpath=""
     font-style="normal"
     font-weight="400"
     d="m 176.3892,103.98974 h 47.85636 c 3.64198,0.60756 3.03708,7.05068 0,7.54209 h -19.57352 v 54.68015 c -0.90492,4.8012 -7.8242,4.59082 -8.70932,0 V 111.53183 H 176.3892 c -3.56332,-1.64123 -2.89792,-6.85561 0,-7.54209 z m 68.23795,56.20652 v 0 c 1.97531,0 3.72616,-0.0449 5.25253,-0.13468 1.52637,-0.0898 2.79835,-0.25439 3.81594,-0.49382 v 0 -13.91695 c -0.59858,-0.29929 -1.57127,-0.55369 -2.91807,-0.76319 -1.34681,-0.2095 -2.97793,-0.31425 -4.89338,-0.31425 v 0 c -1.25701,0 -2.58885,0.0898 -3.99551,0.26936 -1.40666,0.17957 -2.69361,0.55368 -3.86084,1.12233 -1.16723,0.56865 -2.13992,1.34681 -2.91807,2.33446 -0.77815,0.98765 -1.16722,2.28956 -1.16722,3.90572 v 0 c 0,2.99289 0.95772,5.07295 2.87317,6.24018 1.91545,1.16723 4.51927,1.75084 7.81145,1.75084 z m -0.71829,-41.84063 v 0 c 3.35204,0 6.18032,0.43397 8.48485,1.30191 2.30453,0.86793 4.16012,2.09502 5.56678,3.68125 1.40666,1.58623 2.40928,3.47176 3.00786,5.65657 0.59857,2.18481 0.89786,4.59409 0.89786,7.22784 v 0 29.1807 c -0.71829,0.11971 -1.72091,0.28432 -3.00785,0.49383 -1.28695,0.2095 -2.7385,0.40404 -4.35466,0.58361 -1.61616,0.17957 -3.367,0.34418 -5.25253,0.49383 -1.88552,0.14964 -3.75608,0.22446 -5.61167,0.22446 v 0 c -2.63375,0 -5.05799,-0.26936 -7.27273,-0.80808 -2.21474,-0.53872 -4.13019,-1.39169 -5.74635,-2.55892 -1.61617,-1.16723 -2.87318,-2.70857 -3.77105,-4.62402 -0.89787,-1.91545 -1.3468,-4.21998 -1.3468,-6.91358 v 0 c 0,-2.57389 0.52376,-4.78863 1.57127,-6.64422 1.04751,-1.85559 2.46914,-3.35204 4.26487,-4.48934 1.79573,-1.1373 3.89076,-1.97531 6.28507,-2.51403 2.39432,-0.53872 4.90835,-0.80808 7.54209,-0.80808 v 0 c 0.83801,0 1.70595,0.0449 2.60382,0.13468 0.89787,0.0898 1.75084,0.2095 2.55892,0.35915 0.80808,0.14964 1.51141,0.28432 2.10999,0.40404 0.59858,0.11971 1.01759,0.2095 1.25702,0.26936 v 0 -2.33446 c 0,-1.37673 -0.14965,-2.7385 -0.44894,-4.0853 -0.29929,-1.3468 -0.83801,-2.54396 -1.61616,-3.59147 -0.77815,-1.04751 -1.84063,-1.88552 -3.18743,-2.51403 -1.3468,-0.62851 -3.09764,-0.94276 -5.25253,-0.94276 v 0 c -2.75346,0 -5.16274,0.19454 -7.22783,0.58361 -2.06509,0.38908 -3.60643,0.79312 -4.62402,1.21213 v 0 l -0.98765,-6.91359 c 1.07744,-0.47886 2.87317,-0.94276 5.3872,-1.39169 2.51403,-0.44893 5.23757,-0.6734 8.1706,-0.6734 z m 72.99665,24.51179 v 0 c 0,3.71119 -0.53872,7.06323 -1.61617,10.05612 -1.07744,2.99289 -2.58885,5.56677 -4.53423,7.72166 -1.94538,2.15488 -4.26487,3.81593 -6.95847,4.98316 -2.69361,1.16723 -5.62664,1.75085 -8.79911,1.75085 v 0 c -3.17247,0 -6.1055,-0.58362 -8.7991,-1.75085 -2.69361,-1.16723 -5.0131,-2.82828 -6.95848,-4.98316 -1.94538,-2.15489 -3.45679,-4.72877 -4.53423,-7.72166 -1.07744,-2.99289 -1.61616,-6.34493 -1.61616,-10.05612 v 0 c 0,-3.65133 0.53872,-6.98841 1.61616,-10.01123 1.07744,-3.02282 2.58885,-5.61167 4.53423,-7.76655 1.94538,-2.15489 4.26487,-3.81594 6.95848,-4.98317 2.6936,-1.16723 5.62663,-1.75084 8.7991,-1.75084 v 0 c 3.17247,0 6.1055,0.58361 8.79911,1.75084 2.6936,1.16723 5.01309,2.82828 6.95847,4.98317 1.94538,2.15488 3.45679,4.74373 4.53423,7.76655 1.07745,3.02282 1.61617,6.3599 1.61617,10.01123 z m -8.70932,0 v 0 c 0,-5.26749 -1.18219,-9.44258 -3.54658,-12.52526 -2.36439,-3.08268 -5.58175,-4.62402 -9.65208,-4.62402 v 0 c -4.07033,0 -7.28769,1.54134 -9.65208,4.62402 -2.36438,3.08268 -3.54657,7.25777 -3.54657,12.52526 v 0 c 0,5.26749 1.18219,9.44257 3.54657,12.52525 2.36439,3.08268 5.58175,4.62402 9.65208,4.62402 v 0 c 4.07033,0 7.28769,-1.54134 9.65208,-4.62402 2.36439,-3.08268 3.54658,-7.25776 3.54658,-12.52525 z m 30.34793,18.49607 v 0 c 0,1.61617 -0.53872,3.02283 -1.61616,4.21998 -1.07745,1.19716 -2.54397,1.79574 -4.39956,1.79574 v 0 c -1.85559,0 -3.32211,-0.59858 -4.39955,-1.79574 -1.07744,-1.19715 -1.61616,-2.60381 -1.61616,-4.21998 v 0 c 0,-1.61616 0.53872,-3.02282 1.61616,-4.21998 1.07744,-1.19715 2.54396,-1.79573 4.39955,-1.79573 v 0 c 1.85559,0 3.32211,0.59858 4.39956,1.79573 1.07744,1.19716 1.61616,2.60382 1.61616,4.21998 z m 42.37936,-2.42424 V 129.3994 c -1.01759,-0.83801 -2.48411,-1.64609 -4.39956,-2.42424 -1.91545,-0.77815 -4.01047,-1.16723 -6.28507,-1.16723 v 0 c -2.39431,0 -4.44444,0.43397 -6.15039,1.30191 -1.70595,0.86794 -3.09765,2.0651 -4.17509,3.59147 -1.07744,1.52637 -1.85559,3.33707 -2.33446,5.4321 -0.47886,2.09503 -0.71829,4.3397 -0.71829,6.73401 v 0 c 0,5.44706 1.3468,9.65207 4.04041,12.61504 2.6936,2.96296 6.28507,4.44444 10.77441,4.44444 v 0 c 2.2746,0 4.17509,-0.10475 5.70146,-0.31425 1.52637,-0.2095 2.70857,-0.43397 3.54658,-0.6734 z m 0,-37.3513 V 97.97403 l 8.35017,-1.43659 v 68.32774 c -1.91545,0.53872 -4.36963,1.07744 -7.36252,1.61616 -2.99289,0.53872 -6.43472,0.80808 -10.32548,0.80808 v 0 c -3.59147,0 -6.8238,-0.56865 -9.69697,-1.70595 -2.87318,-1.1373 -5.32735,-2.75346 -7.36252,-4.84848 -2.03517,-2.09503 -3.60643,-4.65395 -4.7138,-7.67677 -1.10737,-3.02283 -1.66106,-6.41976 -1.66106,-10.1908 v 0 c 0,-3.59147 0.4639,-6.88366 1.3917,-9.87655 0.92779,-2.99289 2.28956,-5.56678 4.0853,-7.72166 1.79573,-2.15488 3.99551,-3.8309 6.59932,-5.02806 2.60382,-1.19715 5.58175,-1.79573 8.93379,-1.79573 v 0 c 2.6936,0 5.07295,0.35915 7.13805,1.07744 2.06509,0.71829 3.60643,1.40666 4.62402,2.06509 z m 20.11223,21.36925 v 0 c 0,-4.13019 0.59858,-7.73662 1.79574,-10.8193 1.19715,-3.08268 2.78339,-5.6416 4.7587,-7.67677 1.97531,-2.03517 4.2499,-3.56154 6.82379,-4.57913 2.57389,-1.01758 5.20763,-1.52637 7.90124,-1.52637 v 0 c 6.28507,0 11.10363,1.96034 14.45567,5.88103 3.35204,3.92069 5.02806,9.89151 5.02806,17.91246 v 0 1.3917 c 0,0.56865 -0.0299,1.0924 -0.0898,1.57127 v 0 h -31.96409 c 0.35915,4.84849 1.76581,8.52974 4.21998,11.04377 2.45417,2.51403 6.28508,3.77104 11.49271,3.77104 v 0 c 2.93303,0 5.40217,-0.25439 7.4074,-0.76318 2.00524,-0.50879 3.51665,-1.00262 4.53424,-1.48148 v 0 l 1.16722,7.00336 c -1.01758,0.53872 -2.79835,1.10737 -5.34231,1.70595 -2.54396,0.59858 -5.4321,0.89787 -8.66442,0.89787 v 0 c -4.07033,0 -7.58698,-0.61354 -10.54995,-1.84063 -2.96296,-1.22709 -5.40217,-2.91807 -7.31762,-5.07295 -1.91545,-2.15489 -3.33708,-4.71381 -4.26487,-7.67677 -0.9278,-2.96297 -1.3917,-6.21026 -1.3917,-9.74187 z m 8.88889,-4.57912 h 23.16499 c 0.0599,-3.77105 -0.88289,-6.86869 -2.82828,-9.29293 -1.94538,-2.42425 -4.62402,-3.63637 -8.03592,-3.63637 v 0 c -1.91545,0 -3.60644,0.37411 -5.07295,1.12234 -1.46652,0.74822 -2.70857,1.72091 -3.72615,2.91807 -1.01759,1.19715 -1.8107,2.57388 -2.37935,4.13019 -0.56865,1.55631 -0.94277,3.14254 -1.12234,4.7587 z m 71.73964,-18.85522 c 1.60175,-6.76065 8.77107,-5.06432 8.61953,0 -2.33446,8.73925 -5.07296,17.11934 -8.21549,25.14029 -3.14254,8.02095 -6.18033,15.2039 -9.11336,21.54883 v 0 h -7.54209 c -2.93303,-6.34493 -5.97082,-13.52788 -9.11336,-21.54883 -3.14253,-8.02095 -5.88103,-16.40104 -8.21549,-25.14029 v 0 c 0.20112,-4.6057 7.10214,-5.88306 8.97868,0 0.71829,2.93303 1.57127,6.0606 2.55892,9.38271 0.98765,3.32211 2.03517,6.6143 3.14254,9.87655 1.10737,3.26225 2.22971,6.41975 3.367,9.4725 1.1373,3.05275 2.21474,5.77629 3.23233,8.1706 v 0 c 1.01758,-2.39431 2.09502,-5.11785 3.23232,-8.1706 1.1373,-3.05275 2.25964,-6.21025 3.36701,-9.4725 1.10737,-3.26225 2.15488,-6.55444 3.14253,-9.87655 0.98765,-3.32211 1.84063,-6.44968 2.55893,-9.38271 z"
     style="fill:#f39c12;fill-opacity:1;stroke-width:0.897868"
     sodipodi:nodetypes="cccccccccssssccssssssssssssssssccssssssssssssssssssscssssssssccsssssssssssssssssssssssssssssssssssssssssssssssssccsssssssssssscccccssssssssssssssccsssssssscssccsssssccssssssscccsssssscccssccssccssssssssc" />
</svg>
